<?xml version="1.0" encoding="utf-8"?>
<!-- Generator: Adobe Illustrator 23.0.1, SVG Export Plug-In . SVG Version: 6.00 Build 0)  -->
<svg version="1.1" id="Layer_1" xmlns="http://www.w3.org/2000/svg" xmlns:xlink="http://www.w3.org/1999/xlink" x="0px" y="0px"
	 viewBox="0 0 206 193" style="enable-background:new 0 0 206 193;" xml:space="preserve">
<style type="text/css">
	.st0{enable-background:new    ;}
	.st1{fill:#38373E;}
</style>
<g class="st0">
	<path class="st1" d="M83.5,120.1c5.4,5.7,8.2,13.3,8.2,22.9c0,10.5-3.2,18.5-9.7,24.2c-6.5,5.7-15.4,8.5-26.7,8.5
		c-13.8,0-24.7-5.3-32.7-16c-8-10.7-11.9-25.8-11.9-45.5c0-18.4,4.1-35.4,12.2-50.9c8.2-15.5,20.2-31,36.1-46.5
		c0.4-0.4,1-0.6,1.9-0.6c1.3,0,2.3,0.6,3.1,1.9c0.8,1.3,0.8,2.3,0,3.1C43.5,42.1,33.3,66.8,33.3,95.3c0,11.7,2.1,20.3,6.3,25.7
		c3.8-6.3,11.1-9.4,22-9.4C70.7,111.6,78.1,114.5,83.5,120.1z M186.5,120.1c5.4,5.7,8.2,13.3,8.2,22.9c0,10.5-3.2,18.5-9.7,24.2
		c-6.5,5.7-15.4,8.5-26.7,8.5c-13.8,0-24.7-5.3-32.7-16c-8-10.7-11.9-25.8-11.9-45.5c0-18.4,4.1-35.4,12.2-50.9
		c8.2-15.5,20.2-31,36.1-46.5c0.4-0.4,1-0.6,1.9-0.6c1.3,0,2.3,0.6,3.1,1.9c0.8,1.3,0.8,2.3,0,3.1c-20.5,20.9-30.8,45.6-30.8,74.1
		c0,11.7,2.1,20.3,6.3,25.7c3.8-6.3,11.1-9.4,22-9.4C173.7,111.6,181.1,114.5,186.5,120.1z"/>
</g>
</svg>
